<svg width="257" height="166" viewBox="0 0 257 166" fill="none" xmlns="http://www.w3.org/2000/svg">
<g clip-path="url(#clip0_122_1121)">
<path d="M10.0956 141.73H2.1894L25.0565 79.4536H32.8411L55.7082 141.73H47.802L29.192 89.306H28.7055L10.0956 141.73ZM13.0148 117.403H44.8828V124.093H13.0148V117.403ZM65.4084 79.4536H74.4093L95.5735 131.148H96.3033L117.468 79.4536H126.468V141.73H119.414V94.4146H118.806L99.3442 141.73H92.5327L73.0713 94.4146H72.4632V141.73H65.4084V79.4536ZM141.589 141.73V79.4536H149.13V135.04H178.079V141.73H141.589Z" fill="white"/>
<path d="M38.14 77C38.36 76.41 38.58 75.81 38.82 75.22C38.82 75.22 39.3 74.02 39 74.76C38.7 75.5 39.18 74.35 39.2 74.31C39.7267 73.1033 40.2967 71.9133 40.91 70.74C42.0783 68.4811 43.391 66.3 44.84 64.21C45.19 63.7 45.55 63.21 45.92 62.71C46.0437 62.5003 46.1913 62.3056 46.36 62.13L46.03 62.55C46.14 62.41 46.26 62.27 46.37 62.12C47.17 61.12 48 60.12 48.86 59.22C50.492 57.4337 52.2463 55.763 54.11 54.22C54.38 53.99 54.66 53.74 54.95 53.54C54.84 53.62 54.08 54.19 54.8 53.67C55.28 53.31 55.8 52.96 56.25 52.67C57.25 51.96 58.34 51.28 59.43 50.67C60.52 50.06 61.43 49.57 62.43 49.07C62.97 48.81 63.51 48.56 64.06 48.32C63.32 48.6 65.15 47.83 64.06 48.32L65.24 47.86C67.5156 47.0056 69.8565 46.3367 72.24 45.86L74.07 45.53L74.81 45.42C73.44 45.55 74.73 45.42 74.98 45.42C76.25 45.28 77.52 45.2 78.8 45.17C80.5583 45.1282 82.3175 45.1816 84.07 45.33L85.26 45.45C86.81 45.6 84.26 45.28 85.83 45.52C86.7633 45.66 87.6933 45.83 88.62 46.03C90.2927 46.3841 91.9451 46.828 93.57 47.36C94.45 47.65 95.32 47.98 96.18 48.36C97.04 48.74 96.46 48.46 96.27 48.36C96.83 48.6 97.39 48.86 97.95 49.12C101.6 50.84 104.95 48.71 105.44 44.82C105.3 45.63 105.58 43.59 105.44 44.82C105.44 44.52 105.53 44.21 105.58 43.91C105.67 43.36 105.77 42.82 105.88 42.27C106.11 41.14 106.38 40.01 106.7 38.9C107.02 37.79 107.37 36.7 107.77 35.62C108.026 35.143 108.221 34.6357 108.35 34.11C108.35 34.74 108.06 34.78 108.27 34.31L108.72 33.31C109.663 31.2604 110.76 29.2848 112 27.4C112.33 26.91 112.66 26.4 113 25.94L113.42 25.37C112.9 25.96 114.11 24.43 113.42 25.37C114.16 24.54 114.84 23.64 115.6 22.82C117.133 21.1922 118.769 19.6657 120.5 18.25C119.86 18.69 121.4 17.5 120.5 18.25L121.21 17.72C121.63 17.41 122.07 17.1 122.51 16.8C123.44 16.18 124.39 15.58 125.37 15.03C126.35 14.48 127.37 13.95 128.37 13.47C128.871 13.2828 129.359 13.0623 129.83 12.81C129.04 13.33 129.29 13.03 129.64 12.9L130.64 12.51C132.788 11.7106 134.995 11.0787 137.24 10.62C137.84 10.5 138.44 10.39 139.04 10.3C139.28 10.2431 139.524 10.2063 139.77 10.19C139.39 10.19 138.56 10.19 139.77 10.19C140.95 10.06 142.13 9.97001 143.31 9.93001C144.49 9.89001 145.68 9.93001 146.86 9.93001C148.024 9.8956 149.188 9.99289 150.33 10.22C149.2 9.88001 149.89 10.16 150.27 10.22L151.16 10.37L152.75 10.67C153.85 10.91 154.95 11.19 156.04 11.51C157.13 11.83 158.18 12.18 159.22 12.58C159.56 12.71 161.12 13.17 159.83 12.81C160.382 13.0066 160.917 13.2474 161.43 13.53C163.421 14.4887 165.34 15.5917 167.17 16.83C167.65 17.16 168.12 17.49 168.59 17.83C168.785 17.9544 168.972 18.0913 169.15 18.24C168.31 17.43 168.85 18.01 169.1 18.24C169.94 18.94 170.78 19.64 171.59 20.4C173.166 21.9379 174.64 23.5781 176 25.31C176.77 26.24 175.37 24.43 176.07 25.4L176.49 25.96L177.38 27.25C178 28.17 178.59 29.11 179.14 30.07C179.77 31.19 180.37 32.34 180.91 33.51C181 33.72 181.1 33.94 181.2 34.15C181.66 35.15 180.87 33.31 181.2 34.26C181.45 34.92 181.71 35.58 181.95 36.26C182.783 38.6362 183.415 41.0781 183.84 43.56L183.96 44.28C183.96 44.52 184.03 44.76 184.07 45L183.98 44.4C184.126 45.0564 184.193 45.7278 184.18 46.4C184.29 47.74 184.33 49.09 184.32 50.4C184.32 51.31 184.32 52.23 184.21 53.14C184.21 53.55 184.14 53.96 184.1 54.37C184.1 54.56 183.92 55.96 184.1 54.99C183.852 56.7464 183.498 58.4862 183.04 60.2C181.99 64.2 186.6 68.2 190.35 65.82C191.847 64.8822 193.4 64.0373 195 63.29C195.39 63.09 195.8 62.91 196.2 62.73C197.51 62.12 195.28 63.05 196.64 62.55C197.64 62.19 198.58 61.83 199.57 61.55C201.291 61.0226 203.045 60.6084 204.82 60.31C204.95 60.31 206.45 60.08 205.3 60.22L206.67 60.08C207.75 59.98 208.83 59.93 209.91 59.91C211.422 59.8963 212.935 59.9631 214.44 60.11L215.17 60.19C216.42 60.32 214.05 59.99 215.29 60.19C216.12 60.33 216.95 60.47 217.77 60.65C219.166 60.9469 220.545 61.3208 221.9 61.77C222.57 61.99 223.24 62.23 223.9 62.48C224.23 62.61 224.57 62.72 224.9 62.87C223.63 62.25 225.07 62.96 225.32 63.08C226.579 63.6557 227.808 64.2965 229 65C230.347 65.6897 231.606 66.5391 232.75 67.53C231.81 66.53 233.09 67.82 233.37 68.06C233.9 68.5 234.43 68.96 234.94 69.43C236.015 70.4704 237.037 71.5651 238 72.71C238.481 73.2142 238.926 73.7522 239.33 74.32C238.63 73.22 239.23 74.21 239.39 74.43C239.55 74.65 239.8 74.99 240 75.28C240.863 76.5277 241.661 77.8194 242.39 79.15C242.72 79.77 243.04 80.39 243.39 81.03C243.54 81.34 243.69 81.66 243.83 82.03C243.97 82.4 244.55 83.23 243.89 82.14C244.523 83.4101 244.997 84.7536 245.3 86.14C245.708 87.521 246.042 88.9231 246.3 90.34C246.367 90.7 246.427 91.06 246.48 91.42C246.54 91.74 246.88 92.8 246.48 91.54C246.65 92.3892 246.731 93.254 246.72 94.12C246.795 95.6157 246.795 97.1143 246.72 98.61C246.72 99.35 246.63 100.09 246.56 100.83C246.556 101.196 246.516 101.561 246.44 101.92C246.84 100.58 246.44 102.08 246.36 102.41C245.884 105.245 245.117 108.023 244.07 110.7C243.98 110.95 243.62 112.1 244.07 110.83C243.944 111.171 243.801 111.504 243.64 111.83C243.34 112.47 243.03 113.11 242.71 113.73C242.005 115.075 241.228 116.38 240.38 117.64C239.99 118.23 239.58 118.79 239.17 119.35C238.47 120.35 239.87 118.52 239.1 119.45L238.44 120.26C237.54 121.32 236.6 122.34 235.6 123.32C234.6 124.3 233.55 125.19 232.48 126.07C231.41 126.95 233.36 125.44 232.38 126.15L231.54 126.76C230.873 127.233 230.207 127.683 229.54 128.11C228.35 128.84 227.13 129.52 225.87 130.11L224.92 130.55C224.68 130.66 223.61 131.21 224.82 130.62C224.066 130.955 223.295 131.248 222.51 131.5C221.28 131.92 220.03 132.29 218.76 132.6C218.06 132.77 217.36 132.92 216.65 133.06L215.59 133.24L214.87 133.35C215.59 133.26 215.67 133.24 215.11 133.35C211.25 133.73 207.38 133.63 203.5 133.63H193C191.674 133.63 190.402 134.157 189.464 135.094C188.527 136.032 188 137.304 188 138.63C188 139.956 188.527 141.228 189.464 142.166C190.402 143.103 191.674 143.63 193 143.63C199.5 143.63 206.07 143.91 212.56 143.57C219.161 143.229 225.612 141.484 231.486 138.453C237.359 135.421 242.518 131.173 246.62 125.99C250.884 120.545 253.911 114.236 255.491 107.503C257.071 100.77 257.166 93.7736 255.77 87C254.352 80.1013 251.382 73.6161 247.084 68.0363C242.787 62.4565 237.275 57.9287 230.967 54.7964C224.659 51.664 217.72 50.0094 210.678 49.9581C203.635 49.9067 196.673 51.46 190.32 54.5C188.594 55.312 186.924 56.2374 185.32 57.27L192.63 62.9C195.606 51.4097 194.496 39.2421 189.49 28.48C185.169 19.2844 178.133 11.6342 169.33 6.56001C160.253 1.32981 149.739 -0.853643 139.33 0.330005C128.042 1.60106 117.532 6.70409 109.552 14.7878C101.572 22.8714 96.6052 33.4469 95.48 44.75L102.97 40.45C90.97 34.81 76.97 33.45 64.27 37.61C53.4 41.19 44.38 48.27 37.54 57.35C33.7216 62.5441 30.6891 68.2722 28.54 74.35C27.63 76.79 29.54 79.91 32.01 80.47C33.2817 80.7859 34.6262 80.6022 35.7665 79.9567C36.9069 79.3112 37.7564 78.253 38.14 77Z" fill="#F7941D"/>
</g>
<defs>
<clipPath id="clip0_122_1121">
<rect width="256.74" height="165.76" fill="white"/>
</clipPath>
</defs>
</svg>
